# xmcd
#
# Track frame offsets: 
#        150
#        20474
#        60078
#        88278
#        105669
#        129664
#        147912
#        175334
#        195156
#        212803
#        226265
#        244207
#        264907
#
# Disc length: 4101 seconds
#
# Revision: 0
# Processed by: cddbd v1.5.2PL0 Copyright (c) Steve Scherf et al.
# Submitted via: ExactAudioCopy v0.99pb5
#
DISCID=ac10030d
DTITLE=The Rolling Stones  - Girls, Pills and Powders - CD 4
DYEAR=1900
DGENRE=
TTITLE0=Everything Is Turning To Gold (Take 2)
TTITLE1=Miss You (Take 4)
TTITLE2=When The Whip Comes Down (Take 2)
TTITLE3=Lies (Take 3)
TTITLE4=Far Away Eyes (Take 2)
TTITLE5=Black Limousine (Take 3)
TTITLE6=Up Against The Wall (Take 2)
TTITLE7=I Can't Help It (Take 1)
TTITLE8=Fiji Jim (Take 3)
TTITLE9=So Young
TTITLE10=When You're Gone
TTITLE11=Disco Music (Take 2)
TTITLE12=Everything Is Turning To Gold (Take 1)
EXTD=
EXTT0=
EXTT1=
EXTT2=
EXTT3=
EXTT4=
EXTT5=
EXTT6=
EXTT7=
EXTT8=
EXTT9=
EXTT10=
EXTT11=
EXTT12=
PLAYORDER=
